<?xml version="1.0" encoding="UTF-8"?>
<!DOCTYPE svg PUBLIC "-//W3C//DTD SVG 1.1//EN" "http://www.w3.org/Graphics/SVG/1.1/DTD/svg11.dtd">
<!-- Creator: CorelDRAW -->
<svg xmlns="http://www.w3.org/2000/svg" xml:space="preserve" width="4724px" height="4724px" version="1.1" style="shape-rendering:geometricPrecision; text-rendering:geometricPrecision; image-rendering:optimizeQuality; fill-rule:evenodd; clip-rule:evenodd"
viewBox="0 0 4724 4724"
 xmlns:xlink="http://www.w3.org/1999/xlink"
 xmlns:xodm="http://www.corel.com/coreldraw/odm/2003">
 <defs>
  <style type="text/css">
   <![CDATA[
    .fil0 {fill:white;fill-rule:nonzero}
   ]]>
  </style>
 </defs>
 <g id="Слой_x0020_1">
  <metadata id="CorelCorpID_0Corel-Layer"/>
  <path class="fil0" d="M2388.56 62.58c-1244.21,0 -2253.36,1008.94 -2253.36,2253.36 0,995.6 645.56,1840.24 1541.09,2138.25 112.49,20.87 148.9,-49.04 148.9,-108.37l0 -419.52c-626.83,136.34 -757.35,-265.93 -757.35,-265.93 -102.55,-260.47 -250.32,-329.74 -250.32,-329.74 -204.47,-139.89 15.62,-136.9 15.62,-136.9 226.26,15.75 345.35,232.29 345.35,232.29 200.92,344.35 527.11,244.85 655.71,187.22 20.08,-145.56 78.49,-245.06 143.08,-301.2 -500.43,-57.28 -1026.61,-250.54 -1026.61,-1113.7 0,-246.2 88.07,-447.12 232.08,-604.82 -23.28,-56.92 -100.5,-286.16 22,-596.38 0,0 189.28,-60.47 619.87,230.94 179.7,-49.96 372.39,-74.95 563.87,-75.87 191.56,0.92 384.39,25.91 564.44,75.87 430.24,-291.41 619.09,-230.94 619.09,-230.94 122.64,310.43 45.43,539.67 22.15,596.38 144.57,157.77 231.93,358.83 231.93,604.82 0,865.51 -527.11,1056.07 -1028.88,1111.85 80.77,69.84 154.58,206.96 154.58,417.25l0 618.38c0,59.9 36.05,130.3 150.39,108.16 894.74,-298.37 1539.6,-1142.87 1539.6,-2138.04 0,-1244.42 -1008.94,-2253.36 -2253.37,-2253.36l0.14 0z"/>
  <script type="text/javascript">
  </script>
 </g>
</svg>
